<svg width="0" height="0" class="hidden">
  <symbol xmlns="http://www.w3.org/2000/svg" viewBox="0 0 352 96" id="mir">
    <path fill="#4DB45F" d="M32.6 0C35.7 0 45-.9 49 12.5c2.7 9 6.9 23.7 12.7 44.2h2.4C70.4 35.1 74.7 20.4 77 12.5 81-1 91 0 95 0h30.9v96H94.4V39.4h-2.1L74.8 96H51.1L33.6 39.4h-2.1V96H0V0h32.6zM171 0v56.6h2.5L194.8 10c4.1-9.3 13-10.1 13-10.1h30.4v96h-32.1V39.4h-2.5L182.7 86c-4.1 9.2-13.4 10.1-13.4 10.1h-30.4V0H171zm178.3 45.6c-4.5 12.7-18.5 21.8-34.1 21.8h-33.7V96H251V45.6h98.3z"></path>
    <path fill="#00B2E5" d="M316.6 0h-67.3c1.6 21.4 20 39.7 39.1 39.7h63C355 21.9 342.5 0 316.6 0z"></path>
  </symbol>
  <symbol xmlns="http://www.w3.org/2000/svg" viewBox="0 0 225 225" id="whatsapp">
    <path fill="#25D366" d="M110.3 0h4.5c28.9.7 57.5 12.7 77.8 33.5 20.3 20.2 31.9 48.4 32.5 76.9v4.3c-.7 29.2-12.9 57.9-34 78.2-20.1 19.9-48 31.4-76.3 32.1h-4.5c-28.5-.7-56.6-12.3-76.7-32.5C12.7 172.3.6 143.6 0 114.7v-4.4c.2-3.8.5-7.5.9-11.2 3.4-29.8 19.4-57.8 43.3-75.8C63 8.6 86.5.7 110.3 0M87.1 70.2c-12.4 7.3-21.3 20.3-23.5 34.6-2 12.6 1.1 26.1 8.8 36.4-1.9 6.3-4.1 12.4-6.1 18.6 6.3-2.2 12.6-4 18.9-6.1 13.3 8.8 31 10.7 45.8 4.4 14.2-5.7 25.3-18.4 29.1-33.1 3.8-13.8.9-29.2-7.4-40.9-7.4-10.6-19.1-18-31.8-20.2-11.5-2.1-23.7.3-33.8 6.3z"></path>
    <path fill="#25D366" d="M89.2 87.2c2.2-2 5.3-1.3 8-1.4 2.7 4 4 8.8 6 13.2 2 4.2-5 6-4.3 9.8 4.5 8.3 12.2 14.9 21.2 18 3.8-1.2 4.4-6.1 8-7.6 4.9 1.6 9.7 4 14.1 6.7.3 3.7-.6 8-3.7 10.4-3.6 2.9-8.4 4.4-13 3.3-7.7-1.8-15.3-4.8-21.5-9.8-6.1-4.6-10.9-10.6-15.2-16.8-2.8-4.2-5-9-4.9-14.1-.1-4.3 2-8.8 5.3-11.7z"></path>
  </symbol>
  <symbol xmlns="http://www.w3.org/2000/svg" viewBox="0 0 32 16" id="width">
    <path d="M32 8l-6-6v4h-2V0H8v6H6V2L0 8l6 6v-4h2v6h16v-6h2v4l6-6zm-10 6H10V2h12v12z"></path>
  </symbol>
  <symbol xmlns="http://www.w3.org/2000/svg" viewBox="0 0 119.2 92" id="rst">
    <path d="M93.6 36.1v9h6.6v10.8h13.2V45.1h5.8v-9z"></path>
    <path d="M107.1 29.1V11.6C62.6-13.4 0 3.9 0 45.5c0 46.3 62.6 57.9 107.1 35.4V62.5c-16.5 5.8-44.5 4.2-44.5-16.7S87.1 22 107.1 29.1zM35.3 52.5c-1.7 0-2.5 0-4.1-.8v-9.6c.4.2.8.5 4.1.5s7.4-2.5 7.4-7.4-4-7.4-7.4-7.4c-3.4 0-7.4 3.3-7.4 7.4l-.2 38c-4.3-.2-8.8-2.7-9.6-7.4V34c.1-8.4 7.6-16.1 16.9-16.1 9.3 0 17.7 7.4 17.7 17.5-.1 10-9.1 17.1-17.4 17.1z"></path>
  </symbol>
  <symbol viewBox="0 0 512 409" xmlns="http://www.w3.org/2000/svg" id="diagram">
    <path d="M450 0h62v409h-62V0m20 20v370h22V20h-22zM328 62h61v347h-61V62m20 20v308h21V82h-21zm-123 41h62v286h-62V123zm-122 82h81v204h-81V205zM0 268h62v141H0V268z"></path>
  </symbol>
  <symbol xmlns="http://www.w3.org/2000/svg" viewBox="0 0 509.44 509.5" id="phone">
    <path d="M98.33 54.45C147.11 15.76 210.53-4.06 272.71.7c49.67 3.39 98 22.25 137.26 52.84a258.2 258.2 0 0 1 82 109.1 252 252 0 0 1 13.3 138.27 256.12 256.12 0 0 1-27.7 77.51 68.58 68.58 0 0 1-33.59 31.43c-14.29 6.16-30.79 5.35-45.19 0a93.3 93.3 0 0 1-20.35-10.53c-9.73 9.24-23.73 12.13-36.73 11.38a111.41 111.41 0 0 1-51.6-16.29c-29.65-18.13-55.63-41.5-80.82-65.26-30.45-29.67-60.15-60.47-84.8-95.22-6.85-10.24-13.78-20.58-18.23-32.17-5.1-13.72-8.4-28.38-7.38-43.08.73-9.77 3.91-19.73 10.81-26.91 7.9-8.1 16-16 24-24 11.64-12.53 34.33-11.16 44.41 2.66l32.8 38.28c8.35 9.87 11.38 23.46 10.08 36.14-1 12.68-11.1 22.38-12.43 35-.41 2.3 1.75 3.63 3.08 5.11q35.76 35.73 71.5 71.49c1.61 1.47 3.06 3.8 5.56 3.48 7.29-.54 14-3.8 20.71-6.47 17.16-9.2 40.08-5.92 54.13 7.52q17.49 15 35 30c12.4 8.72 15.44 27.26 7.46 39.9-4.3 6-10.17 10.61-15.16 16 9.42 6.23 20.39 11.1 31.91 10.6 14.39-.75 27.71-9.13 35.86-20.82a232.72 232.72 0 0 0 33.32-109.9c2.24-45.42-8.32-91.56-31.13-131A235 235 0 0 0 344.71 34.58c-55.64-22.54-119.79-23-175.86-1.64A235 235 0 0 0 32.91 168.85c-21.44 56.09-20.92 120.28 1.63 176a235 235 0 0 0 101.79 116.4c39.27 22.56 85.14 33 130.31 30.78a236.63 236.63 0 0 0 95.07-25.2c4.42-2.72 10.88-.78 12.62 4.23a8.57 8.57 0 0 1-3.62 10.55 253.16 253.16 0 0 1-265-21A258.13 258.13 0 0 1 18.4 349.1a251.14 251.14 0 0 1-8.15-165.4c14.91-50.88 46.34-96.62 88.08-129.25z"></path>
  </symbol>
  <symbol viewBox="0 0 36 22" fill="none" xmlns="http://www.w3.org/2000/svg" id="mastercard">
    <path d="M35.756 11.061c.001 5.981-4.756 10.83-10.625 10.832-5.87.002-10.63-4.845-10.63-10.826v-.006C14.498 5.081 19.255.231 25.124.23c5.87-.002 10.629 4.846 10.63 10.827v.005z" fill="#F90"></path>
    <path d="M10.803.232C4.97.269.245 5.107.245 11.062c0 5.977 4.761 10.828 10.628 10.828a10.48 10.48 0 0 0 7.15-2.822h.003c.387-.359.747-.746 1.079-1.16h-2.177c-.291-.357-.555-.73-.793-1.115h3.755c.229-.372.436-.759.619-1.16h-4.994c-.17-.371-.318-.751-.444-1.137h5.883a11.053 11.053 0 0 0 .302-5.754h-6.497c.08-.385.182-.764.303-1.138h5.885a10.956 10.956 0 0 0-.458-1.16h-4.974c.179-.39.382-.77.61-1.137h3.752c-.25-.405-.526-.793-.825-1.16H16.96a9.97 9.97 0 0 1 1.066-1.093A10.481 10.481 0 0 0 10.872.232h-.069z"
      fill="#C00"></path>
    <path d="M34.69 16.722a.348.348 0 0 1 .297.176.36.36 0 0 1 0 .349.344.344 0 0 1-.47.13.327.327 0 0 1-.126-.13.36.36 0 0 1 0-.35.322.322 0 0 1 .13-.13.35.35 0 0 1 .168-.045zm0 .058a.289.289 0 0 0-.287.293.3.3 0 0 0 .037.145.286.286 0 0 0 .498 0 .301.301 0 0 0-.001-.291.284.284 0 0 0-.248-.146zm-.151.486v-.376h.127c.043 0 .075.003.094.01.02.007.035.02.047.037a.1.1 0 0 1-.012.127.113.113 0 0 1-.077.034.107.107 0 0 1 .032.02c.015.015.033.04.055.075l.045.073h-.073l-.033-.059a.304.304 0 0 0-.062-.088.077.077 0 0 0-.048-.012H34.6v.16h-.06zm.06-.212h.072c.035 0 .058-.005.07-.015a.052.052 0 0 0 .02-.042.05.05 0 0 0-.01-.03.057.057 0 0 0-.025-.02.182.182 0 0 0-.06-.007H34.6v.114"
      fill="#FCB340"></path>
    <path d="M14.399 14.168l.141-.98c-.077 0-.19.034-.291.034-.394 0-.444-.215-.413-.371l.389-1.972h.598l.124-1.112h-.564l.114-.675h-1.18c-.025.026-.668 3.792-.668 4.25 0 .68.374.982.902.977.412-.003.734-.12.848-.151zm.358-1.868c0 1.629 1.055 2.016 1.955 2.016.83 0 1.265-.196 1.265-.196l.2-1.112s-.702.29-1.272.29c-1.215 0-1.002-.923-1.002-.923l2.334.007s.149-.747.149-1.051c0-.76-.406-1.693-1.649-1.693-1.138 0-1.98 1.25-1.98 2.662zm1.984-1.63c.64 0 .521.732.521.791h-1.256c0-.075.119-.79.735-.79zm7.166 3.498l.202-1.257s-.555.283-.936.283c-.803 0-1.125-.624-1.125-1.295 0-1.361.69-2.11 1.46-2.11.576 0 1.039.33 1.039.33l.185-1.222s-.547-.402-1.135-.404c-1.768-.007-2.78 1.247-2.78 3.416 0 1.438.75 2.416 2.1 2.416.381 0 .99-.157.99-.157zM8.175 9.656c-.776 0-1.37.254-1.37.254l-.165.994s.49-.204 1.233-.204c.421 0 .73.049.73.398 0 .211-.038.29-.038.29s-.332-.028-.486-.028c-1.105 0-2.007.425-2.007 1.708 0 1.011.674 1.243 1.092 1.243.799 0 1.115-.514 1.133-.515l-.009.426h.996l.445-3.175c0-1.347-1.154-1.39-1.554-1.39zm.172 2.579c.022.194-.049 1.11-.73 1.11-.352 0-.443-.274-.443-.435 0-.316.168-.695.997-.695.193 0 .144.014.176.02zm2.441 2.053c.255 0 1.712.066 1.712-1.466 0-1.433-1.349-1.15-1.349-1.725 0-.287.22-.377.622-.377.16 0 .773.052.773.052l.143-1.018s-.398-.09-1.044-.09c-.837 0-1.687.34-1.687 1.505 0 1.32 1.417 1.188 1.417 1.744 0 .37-.396.401-.701.401-.528 0-1.003-.184-1.005-.175l-.151 1.007c.027.009.32.142 1.27.142zM33.24 8.733l-.204 1.553s-.426-.6-1.093-.6c-1.254 0-1.9 1.274-1.9 2.738 0 .944.46 1.87 1.402 1.87.678 0 1.054-.481 1.054-.481l-.05.411h1.1l.865-5.483-1.174-.008zm-.486 3.019c0 .609-.295 1.422-.909 1.422-.407 0-.598-.348-.598-.895 0-.894.394-1.484.891-1.484.407 0 .617.285.617.957zM2.048 14.229l.689-4.14.101 4.14h.78l1.454-4.14-.644 4.14h1.158l.892-5.49-1.84-.015-1.095 3.361-.03-3.347H1.827l-.905 5.49h1.126z"
      fill="#006"></path>
    <path d="M19.482 14.237c.33-1.909.447-3.416 1.407-3.104.138-.739.467-1.381.617-1.694 0 0-.047-.072-.344-.072-.507 0-1.183 1.048-1.183 1.048l.1-.648h-1.053l-.706 4.47h1.162zm6.795-4.581c-.776 0-1.371.254-1.371.254l-.164.994s.49-.204 1.233-.204c.421 0 .73.049.73.398 0 .211-.038.29-.038.29s-.333-.028-.487-.028c-1.104 0-2.006.425-2.006 1.708 0 1.011.674 1.243 1.092 1.243.799 0 1.115-.514 1.133-.515l-.01.426h.997l.445-3.175c0-1.347-1.154-1.39-1.554-1.39zm.172 2.579c.022.194-.05 1.11-.73 1.11-.352 0-.443-.274-.443-.435 0-.316.168-.695.997-.695.193 0 .144.014.176.02zm2.528 2.001c.181-1.404.516-3.375 1.408-3.103.137-.739.005-.737-.292-.737-.507 0-.62.019-.62.019l.102-.648H28.52l-.706 4.47h1.162z"
      fill="#006"></path>
    <path d="M14.694 13.818l.141-.98c-.077 0-.19.034-.291.034-.394 0-.438-.213-.413-.371l.319-2h.598l.145-1.084h-.565l.115-.674h-1.131c-.025.025-.668 3.791-.668 4.25 0 .679.374.981.901.976.413-.003.735-.12.849-.15zm.358-1.868c0 1.63 1.056 2.016 1.955 2.016.83 0 1.195-.189 1.195-.189l.2-1.112s-.632.284-1.202.284c-1.215 0-1.002-.924-1.002-.924h2.3s.148-.747.148-1.051c0-.76-.372-1.686-1.614-1.686-1.138 0-1.98 1.25-1.98 2.662zm1.985-1.629c.638 0 .52.731.52.79h-1.256c0-.075.119-.79.736-.79zm7.165 3.497l.202-1.257s-.555.283-.936.283c-.802 0-1.125-.624-1.125-1.295 0-1.361.691-2.11 1.46-2.11.577 0 1.04.33 1.04.33l.184-1.222s-.686-.283-1.274-.283c-1.307 0-2.578 1.155-2.578 3.324 0 1.438.687 2.388 2.037 2.388.382 0 .99-.158.99-.158zM8.47 9.306c-.776 0-1.37.254-1.37.254l-.165.994s.491-.204 1.233-.204c.421 0 .73.049.73.398 0 .212-.038.29-.038.29s-.332-.029-.486-.029c-.979 0-2.007.426-2.007 1.71 0 1.01.674 1.242 1.092 1.242.799 0 1.143-.528 1.161-.53l-.037.441h.996l.445-3.175c0-1.347-1.153-1.39-1.554-1.39zm.242 2.586c.022.194-.119 1.103-.8 1.103-.352 0-.443-.273-.443-.435 0-.316.168-.695.997-.695.193 0 .214.021.246.027zm2.371 2.046c.255 0 1.712.066 1.712-1.466 0-1.432-1.349-1.15-1.349-1.725 0-.286.22-.377.622-.377.16 0 .773.052.773.052l.143-1.018s-.398-.09-1.044-.09c-.837 0-1.687.34-1.687 1.505 0 1.32 1.417 1.188 1.417 1.744 0 .37-.396.401-.701.401-.528 0-1.003-.184-1.005-.176l-.15 1.008c.027.009.32.142 1.269.142zm22.492-5.545l-.244 1.543s-.426-.6-1.093-.6c-1.037 0-1.9 1.274-1.9 2.738 0 .945.46 1.87 1.402 1.87.678 0 1.054-.481 1.054-.481l-.05.411h1.1l.865-5.483-1.134.002zm-.526 3.009c0 .609-.295 1.422-.909 1.422-.407 0-.598-.348-.598-.895 0-.894.394-1.483.891-1.483.408 0 .617.285.617.956zM2.343 13.879l.689-4.14.101 4.14h.78l1.454-4.14-.644 4.14H5.88l.892-5.49h-1.79l-1.117 3.368-.058-3.369h-1.65l-.906 5.49h1.091zm17.434.007c.33-1.908.39-3.458 1.177-3.174.137-.739.27-1.025.42-1.337 0 0-.07-.015-.218-.015-.507 0-.882.705-.882.705l.1-.648h-1.053l-.706 4.47h1.162zm7.036-4.58c-.776 0-1.37.254-1.37.254l-.165.994s.491-.204 1.233-.204c.422 0 .73.049.73.398 0 .212-.038.29-.038.29s-.332-.029-.486-.029c-.979 0-2.007.426-2.007 1.71 0 1.01.674 1.242 1.092 1.242.799 0 1.143-.528 1.161-.53l-.037.441h.996l.445-3.175c0-1.347-1.154-1.39-1.554-1.39zm.243 2.586c.021.194-.12 1.103-.801 1.103-.352 0-.443-.273-.443-.435 0-.316.168-.695.997-.695.193 0 .214.021.247.027zm2.221 1.994c.33-1.908.391-3.458 1.177-3.174.138-.739.27-1.025.42-1.337 0 0-.07-.015-.218-.015-.506 0-.882.705-.882.705l.101-.648h-1.054l-.705 4.47h1.162zm5.408-.689a.342.342 0 0 1 .297.175.358.358 0 0 1-.127.48.345.345 0 0 1-.342 0 .355.355 0 0 1 .002-.609.347.347 0 0 1 .17-.046zm0 .058a.286.286 0 0 0-.248.146.299.299 0 0 0-.002.291.287.287 0 0 0 .392.108.275.275 0 0 0 .106-.108.299.299 0 0 0 0-.291.285.285 0 0 0-.248-.146zm-.15.486v-.377h.127c.043 0 .075.003.094.01a.09.09 0 0 1 .046.037.1.1 0 0 1-.012.127.11.11 0 0 1-.076.034.114.114 0 0 1 .032.02c.014.015.032.04.054.075l.045.074h-.073l-.032-.06a.307.307 0 0 0-.063-.088c-.01-.008-.027-.012-.048-.012h-.035v.16h-.06zm.06-.213h.072c.034 0 .058-.005.07-.015a.052.052 0 0 0 .02-.042.05.05 0 0 0-.01-.03.055.055 0 0 0-.025-.02.188.188 0 0 0-.06-.006h-.068v.114"
      fill="#fff"></path>
  </symbol>
  <symbol xmlns="http://www.w3.org/2000/svg" viewBox="0 0 461 149.3" id="visa">
    <path d="M186.3 2.6l-23.5 144.2h37.5L223.9 2.6h-37.6zm-55 0l-35.8 99.2-4.2-21.4-.9-4.8C86 66.3 75.9 48.5 57 33.4c-5.6-4.5-11.2-8.3-16.7-11.6l32.5 124.9h39.1L171.7 2.6h-40.4zm146.5 40c0-16.3 36.6-14.2 52.6-5.4l5.4-31S319.3-.1 302-.1c-18.6 0-62.9 8.1-62.9 47.7 0 37.3 51.9 37.7 51.9 57.3s-46.6 16.1-61.9 3.7l-5.6 32.4s16.8 8.1 42.4 8.1c25.6 0 64.3-13.3 64.3-49.4 0-37.3-52.4-40.8-52.4-57.1zM431 2.6h-30.2c-13.9 0-17.3 10.7-17.3 10.7l-56 133.5h39.1l7.8-21.4h47.7l4.4 21.4H461L431 2.6zm-45.7 93.2l19.7-54 11.1 54h-30.8z"
      fill-rule="evenodd" clip-rule="evenodd" fill="#005bac"></path>
    <path d="M79.1 16.2s-1.6-13-18.1-13H.7L0 5.6s29 5.9 56.8 28C83.3 54.8 92 81.1 92 81.1L79.1 16.2z" fill-rule="evenodd" clip-rule="evenodd" fill="#f6ac1d"></path>
  </symbol>
  <symbol viewBox="0 0 512 512" xmlns="http://www.w3.org/2000/svg" id="telegram">
    <circle cx="256" cy="256" r="247" fill="#1e96c8"></circle>
    <path d="M360.8 159c.3-.2 6.7-3.1 12.4.7 4.4 3 6.5 8.7 5 14.2-13.9 65.6-27.9 131.2-41.8 196.8-.1.8-.9 7.1-6.6 10.5-3.8 2.3-8.6 2.6-12.8.8-1.1-.5-2.2-1.2-3.2-1.9-33-24.8-66-49.6-99-74.5l115.1-103.5c.3-.5 1.6-2.1 1.1-3.1-.4-.8-1.8-1.1-3.7-.8-1.8.2-3.5.9-5 1.9-47.3 29.8-94.5 59.6-141.8 89.4L116.2 270c-2.7-2-6.5-5.2-6.2-9 .3-3.5 4-5.9 5.4-6.8C127 247 314.7 176.3 360.8 159z"
      fill="#fff"></path>
    <path d="M214.8 305.7l-4.1 63.6c1.5-.1 3.7-.3 6.2-1.4 3-1.3 5-3.2 6.1-4.4l29.7-29.4-37.9-28.4z" fill="#a9c9dd"></path>
    <path d="M210.6 369.3c-1.7 0-3.7-.3-5.3-1.6-1.9-1.6-2.5-3.9-2.6-4.5-1.1-4.5-9.9-33.6-22.2-73.6l141.8-89.4c.6-.4 1.4-.9 2.5-1.3 1.8-.7 5.2-1.5 6.1-.2.4.5.2 1.3.1 1.6 0 0-.2 1-1.1 1.9-1.2 1.2-49.4 44.5-115.1 103.5l-4.2 63.6z" fill="#c8daea"></path>
  </symbol>
</svg>